<?xml version="1.0" standalone="no"?>
<!DOCTYPE svg PUBLIC "-//W3C//DTD SVG 20010904//EN"
 "http://www.w3.org/TR/2001/REC-SVG-20010904/DTD/svg10.dtd">
<svg version="1.0" xmlns="http://www.w3.org/2000/svg"
 width="420.000000pt" height="420.000000pt" viewBox="0 0 420.000000 420.000000"
 preserveAspectRatio="xMidYMid meet">

<g transform="translate(0.000000,420.000000) scale(0.100000,-0.100000)"
fill="#000000" stroke="none">
<path d="M1720 3645 c-14 -15 -39 -27 -66 -31 -24 -3 -58 -17 -75 -30 -18 -13
-41 -24 -51 -24 -30 0 -107 -78 -118 -120 -5 -20 -19 -45 -31 -56 -29 -26 -49
-68 -49 -102 0 -19 -13 -46 -37 -75 -37 -45 -38 -50 -41 -134 -3 -99 -3 -149
0 -225 1 -29 -6 -93 -16 -143 -11 -61 -18 -161 -21 -310 -3 -121 -8 -253 -11
-294 l-6 -74 -22 55 c-27 67 -62 118 -81 118 -29 0 -25 -22 8 -54 51 -48 63
-79 81 -206 29 -211 26 -236 -28 -226 -22 4 -27 3 -16 -4 8 -5 32 -10 52 -10
42 0 36 14 92 -202 14 -53 41 -129 61 -167 85 -169 315 -341 550 -412 89 -27
324 -38 418 -19 91 17 250 82 343 140 145 88 225 199 303 414 l37 101 43 1
c33 1 48 7 69 30 l27 28 -27 -23 c-15 -13 -36 -21 -50 -19 -20 3 -23 8 -21 38
3 44 79 297 98 327 8 12 33 32 55 44 38 22 52 50 30 64 -17 10 -67 -32 -99
-85 -17 -28 -33 -50 -36 -50 -9 0 6 149 20 210 23 94 58 474 53 578 -4 103
-20 147 -73 210 -21 25 -25 40 -25 94 0 117 -70 212 -218 294 -37 21 -96 57
-131 82 -88 59 -202 115 -286 140 -55 16 -65 17 -45 5 14 -9 62 -54 107 -99
67 -68 90 -100 128 -176 51 -106 58 -160 24 -178 -14 -8 -73 -10 -176 -7 -114
3 -170 1 -207 -9 -140 -38 -208 29 -399 398 -118 226 -116 244 11 127 42 -39
89 -85 104 -101 l26 -30 4 23 c3 22 8 19 65 -38 72 -72 101 -77 78 -14 -22 64
-53 117 -90 156 -19 21 -33 40 -31 43 10 9 106 -53 181 -118 44 -37 84 -68 88
-68 4 0 19 -8 32 -16 24 -16 23 -14 -6 36 -17 29 -43 66 -57 83 l-25 30 29 6
c24 4 17 7 -37 17 -36 7 -79 12 -95 12 -16 0 -54 9 -84 21 -49 18 -61 19 -110
9 -51 -11 -59 -10 -110 14 -68 32 -81 32 -110 1z m39 -111 c12 -30 30 -91 42
-134 18 -71 50 -140 118 -252 22 -36 22 -38 4 -38 -11 0 -48 20 -84 45 -35 25
-93 62 -129 82 -109 60 -186 120 -219 169 -17 26 -31 55 -31 64 0 27 23 48 61
55 34 6 38 4 72 -44 38 -53 129 -127 135 -110 2 5 -13 30 -35 55 -78 92 -103
128 -100 138 3 9 34 15 129 24 12 2 23 -15 37 -54z m966 -208 c89 -88 145
-184 145 -247 0 -44 -8 -55 -47 -63 -32 -7 -32 -7 -49 51 -9 32 -23 70 -31 86
-22 43 -6 31 22 -17 66 -112 66 -58 0 79 -32 67 -59 106 -107 154 -34 35 -52
58 -39 51 14 -7 61 -49 106 -94z m-1236 -147 c29 -28 67 -57 84 -64 28 -12 29
-14 9 -15 -43 0 -174 71 -158 87 3 3 1 14 -5 24 -19 36 16 20 70 -32z m450
-159 c124 -24 363 -40 561 -37 248 3 282 -5 380 -86 105 -87 134 -157 149
-362 7 -90 5 -130 -11 -220 -10 -60 -25 -225 -33 -365 -13 -234 -16 -263 -45
-359 -22 -75 -49 -133 -97 -213 -106 -178 -208 -271 -411 -375 -74 -38 -90
-43 -150 -43 -37 0 -83 4 -102 8 -19 4 -80 5 -135 2 -176 -10 -227 8 -391 138
-162 129 -226 215 -310 418 -62 150 -68 198 -60 469 14 436 19 494 64 663 23
84 53 174 67 201 40 73 103 129 176 157 58 22 74 24 179 20 63 -3 139 -10 169
-16z"/>
<path d="M1597 2603 c-51 -17 -137 -86 -137 -109 0 -20 13 -18 72 13 74 39
140 41 262 9 110 -28 143 -26 152 11 14 54 -50 82 -201 89 -77 3 -111 0 -148
-13z"/>
<path d="M2560 2570 c-87 -12 -130 -36 -130 -72 0 -35 43 -43 126 -24 141 33
244 17 303 -48 33 -35 55 -35 47 0 -17 65 -88 119 -183 139 -74 16 -81 16
-163 5z"/>
<path d="M1597 2213 c-24 -32 -27 -45 -25 -92 l3 -54 75 -19 c41 -10 85 -18
96 -18 27 0 74 36 75 58 0 14 2 13 8 -3 5 -11 4 -31 -1 -45 -8 -22 -8 -23 6
-10 9 9 20 40 26 69 9 50 8 56 -12 79 -36 38 -94 62 -161 68 l-62 5 -28 -38z
m92 -7 c9 -11 10 -20 1 -36 -13 -24 -38 -23 -53 1 -23 37 25 68 52 35z"/>
<path d="M2563 2173 c-27 -5 -29 -12 -7 -28 26 -19 9 -57 -24 -53 -22 2 -27 8
-27 31 1 15 -2 27 -5 27 -9 0 -70 -39 -70 -45 0 -4 5 -3 11 0 7 5 8 -5 3 -30
-4 -26 -1 -48 11 -76 l18 -40 86 7 c96 7 117 15 126 44 8 25 25 16 25 -13 0
-20 0 -20 15 -1 26 35 10 145 -25 164 -21 11 -108 20 -137 13z"/>
<path d="M2355 2030 c-10 -11 -16 -22 -14 -24 2 -2 12 7 22 20 22 29 17 32 -8
4z"/>
<path d="M1970 1681 c0 -56 39 -95 112 -111 62 -14 138 -2 170 27 23 21 41 78
33 103 -6 18 -9 15 -28 -22 -18 -36 -29 -45 -67 -56 -83 -24 -171 5 -196 64
-18 44 -24 43 -24 -5z"/>
<path d="M1655 1540 c-8 -13 3 -30 18 -30 7 0 28 -32 47 -71 54 -111 205 -234
310 -253 l35 -7 -25 16 -25 16 30 -8 c17 -4 52 -6 79 -5 60 3 55 -6 -11 -18
-42 -8 -38 -9 37 -6 75 2 94 7 163 40 43 21 97 54 118 73 41 37 109 131 109
151 0 6 10 12 22 14 29 4 34 24 8 38 -16 9 -25 8 -36 0 -7 -7 -11 -16 -8 -21
9 -15 -380 -10 -521 6 -216 25 -276 36 -294 57 -17 20 -46 24 -56 8z m474
-120 c146 -11 181 -17 181 -31 0 -22 -323 -5 -408 22 -51 16 -28 32 37 25 31
-3 116 -11 190 -16z"/>
<path d="M1870 1179 c45 -41 131 -89 160 -88 8 0 -10 11 -40 25 -30 14 -79 43
-110 65 l-55 40 45 -42z"/>
<path d="M2370 1174 c-50 -35 -135 -74 -183 -84 l-42 -8 40 -1 c47 -1 143 42
195 88 42 37 38 39 -10 5z"/>
<path d="M2058 1083 c7 -3 16 -2 19 1 4 3 -2 6 -13 5 -11 0 -14 -3 -6 -6z"/>
</g>
</svg>
